<?xml version="1.0" encoding="UTF-8" standalone="no"?>
<!-- Created with Inkscape (http://www.inkscape.org/) -->

<svg
   width="60mm"
   height="15.009mm"
   viewBox="0 0 60 15.009"
   version="1.1"
   id="svg480"
   xmlns="http://www.w3.org/2000/svg"
   xmlns:svg="http://www.w3.org/2000/svg">
  <defs
     id="defs477" />
  <g
     id="layer1">
    <g
       id="g419"
       transform="matrix(0.93493077,0,0,0.93493077,-61.647283,-43.072216)">
      <g
         aria-label="INTE"
         id="g383"
         style="font-size:8.46667px;line-height:1.25;font-family:Bierstadt;-inkscape-font-specification:Bierstadt;stroke-width:0.0313881">
        <path
           d="m 67.123737,56.879009 h -1.186491 v -5.56452 h 1.186491 z"
           style="font-weight:bold"
           id="path375" />
        <path
           d="M 69.554598,56.879009 H 68.44252 v -5.56452 h 1.161687 l 2.530079,3.704168 v -3.704168 h 1.116212 v 5.56452 h -1.161687 l -2.534213,-3.733107 z"
           style="font-weight:bold"
           id="path377" />
        <path
           d="m 76.652876,56.879009 h -1.186492 v -4.576466 h -1.484147 v -0.988054 h 4.142384 v 0.988054 h -1.471745 z"
           style="font-weight:bold"
           id="path379" />
        <path
           d="m 82.606003,56.879009 h -3.74551 v -5.56452 h 3.74551 v 0.983919 h -2.559018 v 1.26504 h 2.315105 v 0.950847 h -2.315105 v 1.380795 h 2.559018 z"
           style="font-weight:bold"
           id="path381" />
      </g>
      <g
         aria-label="SECT"
         id="g393"
         style="font-size:8.46667px;line-height:1.25;font-family:Bierstadt;-inkscape-font-specification:Bierstadt;stroke-width:0.0313881">
        <path
           d="m 112.74268,56.953423 q -0.66146,0 -1.16996,-0.186035 -0.50849,-0.186035 -0.79788,-0.58291 -0.28939,-0.396875 -0.28112,-1.008725 h 1.21543 q 0.0165,0.446485 0.28939,0.640788 0.27698,0.19017 0.76481,0.19017 0.45062,0 0.71107,-0.157097 0.26458,-0.16123 0.26458,-0.475423 0,-0.219108 -0.10749,-0.363802 -0.10748,-0.144694 -0.36793,-0.26045 -0.26045,-0.115755 -0.76895,-0.260449 -0.63665,-0.177767 -1.03766,-0.376205 -0.39688,-0.198437 -0.62012,-0.51263 -0.21911,-0.318327 -0.21911,-0.806153 0,-0.781348 0.55811,-1.16582 0.5581,-0.384473 1.50482,-0.384473 0.59531,0 1.07073,0.177767 0.47543,0.177767 0.75241,0.541569 0.28112,0.359668 0.28112,0.888835 h -1.21543 q 0.0165,-0.330729 -0.24391,-0.508496 -0.25632,-0.177767 -0.64906,-0.177767 -0.38034,0 -0.61185,0.14056 -0.23151,0.136426 -0.23151,0.405143 0,0.169499 0.10336,0.293522 0.10748,0.11989 0.38034,0.239779 0.27285,0.119889 0.80201,0.272852 0.68213,0.198437 1.06661,0.405143 0.3886,0.206706 0.57877,0.529167 0.19017,0.322461 0.19017,0.847494 0,0.839225 -0.60358,1.248503 -0.60358,0.405143 -1.60817,0.405143 z"
           style="font-weight:bold"
           id="path385" />
        <path
           d="m 119.67146,56.879009 h -3.74551 v -5.56452 h 3.74551 v 0.983919 h -2.55902 v 1.26504 h 2.31511 v 0.950847 h -2.31511 v 1.380795 h 2.55902 z"
           style="font-weight:bold"
           id="path387" />
        <path
           d="m 123.16892,56.953423 q -0.83509,0 -1.44694,-0.347265 -0.61185,-0.3514 -0.94258,-0.996322 -0.32659,-0.644923 -0.32659,-1.508953 0,-0.86403 0.32659,-1.508952 0.33073,-0.649057 0.94258,-1.000456 0.61185,-0.3514 1.44694,-0.3514 0.66559,0 1.21956,0.23151 0.55398,0.231511 0.89297,0.682129 0.339,0.446485 0.36794,1.070737 h -1.21956 q -0.062,-0.483692 -0.40515,-0.735873 -0.34313,-0.256315 -0.85576,-0.256315 -0.51676,0 -0.85163,0.252181 -0.33486,0.248047 -0.48782,0.669727 -0.15297,0.421679 -0.15297,0.946712 0,0.520899 0.15297,0.942579 0.15296,0.417545 0.48782,0.669726 0.33487,0.248047 0.85163,0.248047 0.56637,0 0.89297,-0.289388 0.33073,-0.289388 0.3762,-0.830957 h 1.21957 q -0.0496,0.677995 -0.35967,1.153418 -0.31006,0.47129 -0.85163,0.715202 -0.54157,0.243913 -1.27744,0.243913 z"
           style="font-weight:bold"
           id="path389" />
        <path
           d="M 128.64249,56.879009 H 127.456 v -4.576466 h -1.48415 v -0.988054 h 4.14239 v 0.988054 h -1.47175 z"
           style="font-weight:bold"
           id="path391" />
      </g>
      <g
         id="g405">
        <g
           aria-label="R"
           transform="scale(-1,1)"
           id="g397"
           style="font-size:22.5964px;line-height:1.25;font-family:Bierstadt;-inkscape-font-specification:Bierstadt;fill:#25a6ff;stroke-width:0.056491">
          <path
             d="m -94.818324,53.197528 h 5.472565 q 0.639937,0 1.13644,-0.308936 0.496503,-0.308935 0.761305,-0.871638 0.275835,-0.573737 0.275835,-1.312974 v 0 q 0,-0.739238 -0.275835,-1.301941 -0.264802,-0.573737 -0.761305,-0.882672 -0.485469,-0.308935 -1.13644,-0.308935 h -5.472565 v -2.14048 h 5.384298 q 1.390208,0 2.438381,0.573737 1.059206,0.573737 1.632943,1.632943 0.58477,1.048173 0.58477,2.427348 v 0 q 0,1.379174 -0.58477,2.438381 -0.58477,1.048172 -1.643976,1.621909 -1.048173,0.573737 -2.427348,0.573737 h -5.384298 z m -0.981973,-7.127576 h 2.250814 v 16.053595 h -2.250814 z m 5.351198,8.771552 2.23978,-0.507536 4.104424,7.789579 h -2.670082 z"
             style="font-family:Bahnschrift;-inkscape-font-specification:Bahnschrift"
             id="path395" />
        </g>
        <g
           id="g403"
           style="fill:#000000;fill-opacity:1"
           transform="matrix(0.80772685,0,0,0.80772685,8.7536529,-17.169318)">
          <path
             id="path399"
             style="opacity:1;fill-rule:evenodd;stop-color:#000000;stop-opacity:1"
             d="m 99.734802,83.687737 a 0.55058259,0.55058259 0 0 1 -0.550583,0.550582 0.55058259,0.55058259 0 0 1 -0.550582,-0.550582 0.55058259,0.55058259 0 0 1 0.550582,-0.550583 0.55058259,0.55058259 0 0 1 0.550583,0.550583 z" />
          <path
             id="path401"
             style="opacity:1;fill-rule:evenodd;stop-color:#000000;stop-opacity:1"
             d="m 101.37551,83.687737 a 0.55058259,0.55058259 0 0 1 -0.55058,0.550582 0.55058259,0.55058259 0 0 1 -0.55058,-0.550582 0.55058259,0.55058259 0 0 1 0.55058,-0.550583 0.55058259,0.55058259 0 0 1 0.55058,0.550583 z" />
        </g>
      </g>
      <g
         id="g417">
        <g
           aria-label="R"
           id="g409"
           style="font-size:22.5964px;line-height:1.25;font-family:Bierstadt;-inkscape-font-specification:Bierstadt;fill:#25a6ff;stroke-width:0.056491">
          <path
             d="m 98.281163,53.197528 h 5.472567 q 0.63994,0 1.13644,-0.308936 0.4965,-0.308935 0.7613,-0.871638 0.27584,-0.573737 0.27584,-1.312974 v 0 q 0,-0.739238 -0.27584,-1.301941 -0.2648,-0.573737 -0.7613,-0.882672 -0.48547,-0.308935 -1.13644,-0.308935 h -5.472567 v -2.14048 h 5.384297 q 1.39021,0 2.43838,0.573737 1.05921,0.573737 1.63295,1.632943 0.58477,1.048173 0.58477,2.427348 v 0 q 0,1.379174 -0.58477,2.438381 -0.58477,1.048172 -1.64398,1.621909 -1.04817,0.573737 -2.42735,0.573737 h -5.384297 z m -0.981972,-7.127576 h 2.250813 v 16.053595 h -2.250813 z m 5.351199,8.771552 2.23978,-0.507536 4.10442,7.789579 h -2.67008 z"
             style="font-family:Bahnschrift;-inkscape-font-specification:Bahnschrift"
             id="path407" />
        </g>
        <g
           id="g415"
           transform="matrix(0.80772685,0,0,0.80772685,23.020082,-17.169318)"
           style="fill:#000000;fill-opacity:1">
          <path
             id="path411"
             style="opacity:1;fill-rule:evenodd;stop-color:#000000;stop-opacity:1"
             d="m 99.734802,83.687737 a 0.55058259,0.55058259 0 0 1 -0.550583,0.550582 0.55058259,0.55058259 0 0 1 -0.550582,-0.550582 0.55058259,0.55058259 0 0 1 0.550582,-0.550583 0.55058259,0.55058259 0 0 1 0.550583,0.550583 z" />
          <path
             id="path413"
             style="opacity:1;fill-rule:evenodd;stop-color:#000000;stop-opacity:1"
             d="m 101.37551,83.687737 a 0.55058259,0.55058259 0 0 1 -0.55058,0.550582 0.55058259,0.55058259 0 0 1 -0.55058,-0.550582 0.55058259,0.55058259 0 0 1 0.55058,-0.550583 0.55058259,0.55058259 0 0 1 0.55058,0.550583 z" />
        </g>
      </g>
    </g>
  </g>
</svg>
